<?xml version="1.0" encoding="UTF-8" standalone="no"?>
<svg
   xmlns:dc="http://purl.org/dc/elements/1.1/"
   xmlns:cc="http://creativecommons.org/ns#"
   xmlns:rdf="http://www.w3.org/1999/02/22-rdf-syntax-ns#"
   xmlns:svg="http://www.w3.org/2000/svg"
   xmlns="http://www.w3.org/2000/svg"
   xmlns:sodipodi="http://sodipodi.sourceforge.net/DTD/sodipodi-0.dtd"
   xmlns:inkscape="http://www.inkscape.org/namespaces/inkscape"
   sodipodi:docname="logoletras.svg"
   inkscape:version="1.0.1 (3bc2e813f5, 2020-09-07)"
   id="svg8"
   version="1.1"
   viewBox="0 0 111.49753 31.944111"
   height="31.944111mm"
   width="111.49754mm"
   inkscape:export-filename="C:\Users\Celiaco de mierda\Desktop\logo.png"
   inkscape:export-xdpi="95.601448"
   inkscape:export-ydpi="95.601448">
  <defs
     id="defs2">
    <rect
       x="22.489582"
       y="109.80208"
       width="164.83542"
       height="72.760414"
       id="rect437" />
    <rect
       x="159.01459"
       y="164.57083"
       width="166.95209"
       height="60.589584"
       id="rect431" />
    <rect
       x="45.243752"
       y="117.73958"
       width="123.56042"
       height="60.589584"
       id="rect411" />
    <rect
       x="53.710415"
       y="149.22501"
       width="130.43958"
       height="20.372917"
       id="rect405" />
    <rect
       x="54.239582"
       y="121.70833"
       width="129.91042"
       height="24.077084"
       id="rect399" />
    <rect
       id="rect13"
       height="82.780045"
       width="146.96002"
       y="102.80952"
       x="46.869049" />
  </defs>
  <sodipodi:namedview
     inkscape:snap-object-midpoints="true"
     inkscape:window-maximized="1"
     inkscape:window-y="0"
     inkscape:window-x="0"
     inkscape:window-height="704"
     inkscape:window-width="1360"
     inkscape:snap-grids="true"
     inkscape:snap-page="false"
     showgrid="true"
     inkscape:document-rotation="0"
     inkscape:current-layer="layer1"
     inkscape:document-units="mm"
     inkscape:cy="90.568015"
     inkscape:cx="116.81406"
     inkscape:zoom="2.8284272"
     inkscape:pageshadow="2"
     inkscape:pageopacity="0.0"
     borderopacity="1.0"
     bordercolor="#666666"
     pagecolor="#ffffff"
     id="base">
    <inkscape:grid
       type="xygrid"
       id="grid463"
       originx="-50.375783"
       originy="-132.52794" />
  </sodipodi:namedview>
  <metadata
     id="metadata5">
    <rdf:RDF>
      <cc:Work
         rdf:about="">
        <dc:format>image/svg+xml</dc:format>
        <dc:type
           rdf:resource="http://purl.org/dc/dcmitype/StillImage" />
        <dc:title></dc:title>
      </cc:Work>
    </rdf:RDF>
  </metadata>
  <g
     id="layer1"
     inkscape:groupmode="layer"
     inkscape:label="Layer 1"
     transform="translate(-50.375791,-132.52794)">
    <g
       aria-label="Della Siega
 INMOBILIARIA"
       transform="translate(25.633418,20.214401)"
       id="text435"
       style="font-style:normal;font-weight:normal;font-size:10.5833px;line-height:0;font-family:sans-serif;white-space:pre;shape-inside:url(#rect437);fill:#ffffff;fill-opacity:1;stroke:none">
      <path
         d="m 24.742373,126.9722 h 5.630346 c 4.425254,0 7.40835,-2.84481 7.40835,-6.91446 0,-4.06966 -2.983096,-6.91446 -7.40835,-6.91446 h -5.630346 z m 1.461914,-1.26436 v -11.3002 h 4.089409 c 3.674542,0 6.045214,2.33116 6.045214,5.6501 0,3.31894 -2.370672,5.6501 -6.045214,5.6501 z"
         style="font-style:normal;font-variant:normal;font-weight:normal;font-stretch:normal;font-size:19.7556px;line-height:1.15;font-family:Montserrat;-inkscape-font-specification:'Montserrat, Normal';font-variant-ligatures:normal;font-variant-caps:normal;font-variant-numeric:normal;font-variant-east-asian:normal;letter-spacing:0.529167px;fill:#ffffff"
         id="path440" />
      <path
         d="m 50.361119,121.77648 c 0,-3.12139 -2.11385,-5.27475 -5.037678,-5.27475 -2.923829,0 -5.07719,2.19287 -5.07719,5.27475 0,3.08187 2.212628,5.2945 5.452546,5.2945 1.639715,0 3.081874,-0.59267 4.010387,-1.69899 l -0.790224,-0.90875 c -0.790224,0.90875 -1.916293,1.36313 -3.180652,1.36313 -2.271894,0 -3.931364,-1.44216 -4.089409,-3.61527 h 8.692464 c 0,-0.15805 0.01976,-0.31609 0.01976,-0.43462 z m -5.037678,-4.06966 c 2.034826,0 3.516496,1.4224 3.694297,3.45723 h -7.368839 c 0.1778,-2.03483 1.65947,-3.45723 3.674542,-3.45723 z"
         style="font-style:normal;font-variant:normal;font-weight:normal;font-stretch:normal;font-size:19.7556px;line-height:1.15;font-family:Montserrat;-inkscape-font-specification:'Montserrat, Normal';font-variant-ligatures:normal;font-variant-caps:normal;font-variant-numeric:normal;font-variant-east-asian:normal;letter-spacing:0.529167px;fill:#ffffff"
         id="path442" />
      <path
         d="m 53.754812,126.9722 h 1.402647 v -14.65866 h -1.402647 z"
         style="font-style:normal;font-variant:normal;font-weight:normal;font-stretch:normal;font-size:19.7556px;line-height:1.15;font-family:Montserrat;-inkscape-font-specification:'Montserrat, Normal';font-variant-ligatures:normal;font-variant-caps:normal;font-variant-numeric:normal;font-variant-east-asian:normal;letter-spacing:0.529167px;fill:#ffffff"
         id="path444" />
      <path
         d="m 59.598218,126.9722 h 1.402648 v -14.65866 h -1.402648 z"
         style="font-style:normal;font-variant:normal;font-weight:normal;font-stretch:normal;font-size:19.7556px;line-height:1.15;font-family:Montserrat;-inkscape-font-specification:'Montserrat, Normal';font-variant-ligatures:normal;font-variant-caps:normal;font-variant-numeric:normal;font-variant-east-asian:normal;letter-spacing:0.529167px;fill:#ffffff"
         id="path446" />
      <path
         d="m 69.076652,116.50173 c -1.639715,0 -3.180652,0.51365 -4.227699,1.40265 l 0.63218,1.04704 c 0.84949,-0.75071 2.113849,-1.22484 3.45723,-1.22484 1.936048,0 2.943584,0.96802 2.943584,2.74603 v 0.63217 h -3.299185 c -2.983096,0 -4.010387,1.34339 -4.010387,2.94359 0,1.79776 1.442159,3.02261 3.793075,3.02261 1.718737,0 2.943585,-0.65194 3.575764,-1.71874 v 1.61996 h 1.343381 v -6.44033 c 0,-2.68676 -1.521182,-4.03014 -4.207943,-4.03014 z m -0.49389,9.46293 c -1.659471,0 -2.627495,-0.75071 -2.627495,-1.9558 0,-1.0668 0.651935,-1.85703 2.667006,-1.85703 h 3.259674 v 1.69898 c -0.553157,1.36314 -1.718737,2.11385 -3.299185,2.11385 z"
         style="font-style:normal;font-variant:normal;font-weight:normal;font-stretch:normal;font-size:19.7556px;line-height:1.15;font-family:Montserrat;-inkscape-font-specification:'Montserrat, Normal';font-variant-ligatures:normal;font-variant-caps:normal;font-variant-numeric:normal;font-variant-east-asian:normal;letter-spacing:0.529167px;fill:#ffffff"
         id="path448" />
      <path
         d="m 87.440839,127.09073 c 3.536252,0 5.156212,-1.73849 5.156212,-3.77332 0,-5.03768 -8.514664,-2.74603 -8.514664,-6.5391 0,-1.38289 1.126069,-2.50896 3.654786,-2.50896 1.224847,0 2.607739,0.37535 3.793075,1.14582 l 0.49389,-1.16558 c -1.106313,-0.77047 -2.726273,-1.22485 -4.286965,-1.22485 -3.516497,0 -5.096945,1.75825 -5.096945,3.79308 0,5.1167 8.514664,2.78554 8.514664,6.57861 0,1.36314 -1.126069,2.4497 -3.714053,2.4497 -1.817515,0 -3.575764,-0.7112 -4.563544,-1.67923 l -0.572912,1.12607 c 1.027291,1.0668 3.062118,1.79776 5.136456,1.79776 z"
         style="font-style:normal;font-variant:normal;font-weight:normal;font-stretch:normal;font-size:19.7556px;line-height:1.15;font-family:Montserrat;-inkscape-font-specification:'Montserrat, Normal';font-variant-ligatures:normal;font-variant-caps:normal;font-variant-numeric:normal;font-variant-east-asian:normal;letter-spacing:0.529167px;fill:#ffffff"
         id="path450" />
      <path
         d="m 96.721732,114.30886 c 0.592668,0 1.027291,-0.45438 1.027291,-1.02729 0,-0.5334 -0.454379,-0.96803 -1.027291,-0.96803 -0.572913,0 -1.027292,0.45438 -1.027292,0.98778 0,0.55316 0.454379,1.00754 1.027292,1.00754 z M 96.01053,126.9722 h 1.402648 V 116.58075 H 96.01053 Z"
         style="font-style:normal;font-variant:normal;font-weight:normal;font-stretch:normal;font-size:19.7556px;line-height:1.15;font-family:Montserrat;-inkscape-font-specification:'Montserrat, Normal';font-variant-ligatures:normal;font-variant-caps:normal;font-variant-numeric:normal;font-variant-east-asian:normal;letter-spacing:0.529167px;fill:#ffffff"
         id="path452" />
      <path
         d="m 110.92176,121.77648 c 0,-3.12139 -2.11385,-5.27475 -5.03768,-5.27475 -2.92383,0 -5.07719,2.19287 -5.07719,5.27475 0,3.08187 2.21263,5.2945 5.45255,5.2945 1.63971,0 3.08187,-0.59267 4.01038,-1.69899 l -0.79022,-0.90875 c -0.79023,0.90875 -1.91629,1.36313 -3.18065,1.36313 -2.2719,0 -3.93137,-1.44216 -4.08941,-3.61527 h 8.69246 c 0,-0.15805 0.0198,-0.31609 0.0198,-0.43462 z m -5.03768,-4.06966 c 2.03483,0 3.5165,1.4224 3.6943,3.45723 h -7.36884 c 0.1778,-2.03483 1.65947,-3.45723 3.67454,-3.45723 z"
         style="font-style:normal;font-variant:normal;font-weight:normal;font-stretch:normal;font-size:19.7556px;line-height:1.15;font-family:Montserrat;-inkscape-font-specification:'Montserrat, Normal';font-variant-ligatures:normal;font-variant-caps:normal;font-variant-numeric:normal;font-variant-east-asian:normal;letter-spacing:0.529167px;fill:#ffffff"
         id="path454" />
      <path
         d="m 122.59305,116.58075 v 1.99532 c -0.86925,-1.36314 -2.37067,-2.07434 -4.10916,-2.07434 -2.96334,0 -5.21548,2.03483 -5.21548,5.01792 0,2.9831 2.25214,5.05744 5.21548,5.05744 1.69898,0 3.18065,-0.69145 4.04989,-2.01508 v 1.32363 c 0,2.56823 -1.20509,3.77332 -3.83258,3.77332 -1.60021,0 -3.10163,-0.5334 -4.08941,-1.4224 l -0.7112,1.0668 c 1.08655,1.02729 2.94358,1.6002 4.84012,1.6002 3.43747,0 5.19572,-1.61996 5.19572,-5.19572 v -9.12709 z m -3.97088,8.75173 c -2.29164,0 -3.93136,-1.56069 -3.93136,-3.81283 0,-2.25214 1.63972,-3.79307 3.93136,-3.79307 2.29165,0 3.95112,1.54093 3.95112,3.79307 0,2.25214 -1.65947,3.81283 -3.95112,3.81283 z"
         style="font-style:normal;font-variant:normal;font-weight:normal;font-stretch:normal;font-size:19.7556px;line-height:1.15;font-family:Montserrat;-inkscape-font-specification:'Montserrat, Normal';font-variant-ligatures:normal;font-variant-caps:normal;font-variant-numeric:normal;font-variant-east-asian:normal;letter-spacing:0.529167px;fill:#ffffff"
         id="path456" />
      <path
         d="m 132.03197,116.50173 c -1.63972,0 -3.18066,0.51365 -4.2277,1.40265 l 0.63218,1.04704 c 0.84949,-0.75071 2.11385,-1.22484 3.45723,-1.22484 1.93605,0 2.94358,0.96802 2.94358,2.74603 v 0.63217 h -3.29918 c -2.9831,0 -4.01039,1.34339 -4.01039,2.94359 0,1.79776 1.44216,3.02261 3.79307,3.02261 1.71874,0 2.94359,-0.65194 3.57577,-1.71874 v 1.61996 h 1.34338 v -6.44033 c 0,-2.68676 -1.52118,-4.03014 -4.20794,-4.03014 z m -0.49389,9.46293 c -1.65947,0 -2.6275,-0.75071 -2.6275,-1.9558 0,-1.0668 0.65194,-1.85703 2.66701,-1.85703 h 3.25967 v 1.69898 c -0.55316,1.36314 -1.71874,2.11385 -3.29918,2.11385 z"
         style="font-style:normal;font-variant:normal;font-weight:normal;font-stretch:normal;font-size:19.7556px;line-height:1.15;font-family:Montserrat;-inkscape-font-specification:'Montserrat, Normal';font-variant-ligatures:normal;font-variant-caps:normal;font-variant-numeric:normal;font-variant-east-asian:normal;letter-spacing:0.529167px;fill:#ffffff"
         id="path458" />
      <path
         d="m 24.764945,144.19415 h 0.6477 v -8.88999 h -0.6477 z"
         style="font-style:normal;font-variant:normal;font-weight:300;font-stretch:normal;font-size:12.7px;line-height:1.25;font-family:Montserrat;-inkscape-font-specification:'Montserrat Light';letter-spacing:1.90235px;fill:#ffffff"
         id="path460" />
      <path
         d="m 37.005071,135.30416 v 7.7216 l -6.0452,-7.7216 h -0.5461 v 8.88999 h 0.6477 v -7.72159 l 6.0579,7.72159 h 0.5334 v -8.88999 z"
         style="font-style:normal;font-variant:normal;font-weight:300;font-stretch:normal;font-size:12.7px;line-height:1.25;font-family:Montserrat;-inkscape-font-specification:'Montserrat Light';font-variant-ligatures:normal;font-variant-caps:normal;font-variant-numeric:normal;font-variant-east-asian:normal;letter-spacing:1.90235px;fill:#ffffff"
         id="path462" />
      <path
         d="m 51.696311,144.19415 -0.0127,-8.88999 h -0.5334 l -3.9751,6.8707 -3.9751,-6.8707 h -0.5461 v 8.88999 h 0.635 v -7.58189 l 3.7211,6.4008 h 0.3175 l 3.7211,-6.4262 0.0127,7.60729 z"
         style="font-style:normal;font-variant:normal;font-weight:300;font-stretch:normal;font-size:12.7px;line-height:1.25;font-family:Montserrat;-inkscape-font-specification:'Montserrat Light';font-variant-ligatures:normal;font-variant-caps:normal;font-variant-numeric:normal;font-variant-east-asian:normal;letter-spacing:1.90235px;fill:#ffffff"
         id="path464" />
      <path
         d="m 60.469352,144.25765 c 2.6416,0 4.6228,-1.91769 4.6228,-4.50849 0,-2.5908 -1.9812,-4.5085 -4.6228,-4.5085 -2.6543,0 -4.6228,1.9304 -4.6228,4.5085 0,2.5781 1.9685,4.50849 4.6228,4.50849 z m 0,-0.59689 c -2.2733,0 -3.9751,-1.6637 -3.9751,-3.9116 0,-2.2479 1.7018,-3.9116 3.9751,-3.9116 2.2606,0 3.9624,1.6637 3.9624,3.9116 0,2.2479 -1.7018,3.9116 -3.9624,3.9116 z"
         style="font-style:normal;font-variant:normal;font-weight:300;font-stretch:normal;font-size:12.7px;line-height:1.25;font-family:Montserrat;-inkscape-font-specification:'Montserrat Light';font-variant-ligatures:normal;font-variant-caps:normal;font-variant-numeric:normal;font-variant-east-asian:normal;letter-spacing:1.90235px;fill:#ffffff"
         id="path466" />
      <path
         d="m 74.525593,139.60946 c 0.889,-0.2921 1.4859,-0.9779 1.4859,-2.032 0,-1.4732 -1.1557,-2.2733 -3.0607,-2.2733 h -3.7084 v 8.88999 h 3.9624 c 2.1844,0 3.2766,-0.85089 3.2766,-2.34949 0,-1.2319 -0.6985,-1.9939 -1.9558,-2.2352 z m -1.6002,-3.7465 c 1.5367,0 2.4257,0.5969 2.4257,1.7653 0,1.1811 -0.889,1.778 -2.4257,1.778 h -3.0353 v -3.5433 z m 0.2794,7.7724 h -3.3147 v -3.6703 h 3.3147 c 1.7018,0 2.6289,0.5588 2.6289,1.8288 0,1.2827 -0.9271,1.8415 -2.6289,1.8415 z"
         style="font-style:normal;font-variant:normal;font-weight:300;font-stretch:normal;font-size:12.7px;line-height:1.25;font-family:Montserrat;-inkscape-font-specification:'Montserrat Light';font-variant-ligatures:normal;font-variant-caps:normal;font-variant-numeric:normal;font-variant-east-asian:normal;letter-spacing:1.90235px;fill:#ffffff"
         id="path468" />
      <path
         d="m 80.695129,144.19415 h 0.6477 v -8.88999 h -0.6477 z"
         style="font-style:normal;font-variant:normal;font-weight:300;font-stretch:normal;font-size:12.7px;line-height:1.25;font-family:Montserrat;-inkscape-font-specification:'Montserrat Light';font-variant-ligatures:normal;font-variant-caps:normal;font-variant-numeric:normal;font-variant-east-asian:normal;letter-spacing:1.90235px;fill:#ffffff"
         id="path470" />
      <path
         d="m 86.343956,144.19415 h 5.7658 v -0.58419 h -5.1181 v -8.3058 h -0.6477 z"
         style="font-style:normal;font-variant:normal;font-weight:300;font-stretch:normal;font-size:12.7px;line-height:1.25;font-family:Montserrat;-inkscape-font-specification:'Montserrat Light';font-variant-ligatures:normal;font-variant-caps:normal;font-variant-numeric:normal;font-variant-east-asian:normal;letter-spacing:1.90235px;fill:#ffffff"
         id="path472" />
      <path
         d="m 95.675796,144.19415 h 0.6477 v -8.88999 h -0.6477 z"
         style="font-style:normal;font-variant:normal;font-weight:300;font-stretch:normal;font-size:12.7px;line-height:1.25;font-family:Montserrat;-inkscape-font-specification:'Montserrat Light';font-variant-ligatures:normal;font-variant-caps:normal;font-variant-numeric:normal;font-variant-east-asian:normal;letter-spacing:1.90235px;fill:#ffffff"
         id="path474" />
      <path
         d="m 107.96672,144.19415 h 0.6985 l -4.0894,-8.88999 h -0.6477 l -4.089397,8.88999 h 0.698497 l 1.1303,-2.50189 h 5.1562 z m -6.0452,-3.04799 2.3241,-5.1308 2.3368,5.1308 z"
         style="font-style:normal;font-variant:normal;font-weight:300;font-stretch:normal;font-size:12.7px;line-height:1.25;font-family:Montserrat;-inkscape-font-specification:'Montserrat Light';font-variant-ligatures:normal;font-variant-caps:normal;font-variant-numeric:normal;font-variant-east-asian:normal;letter-spacing:1.90235px;fill:#ffffff"
         id="path476" />
      <path
         d="m 119.08927,144.19415 -2.2225,-3.11149 c 1.3208,-0.3937 2.0828,-1.3716 2.0828,-2.7813 0,-1.8796 -1.3462,-2.9972 -3.5814,-2.9972 h -3.1877 v 8.88999 h 0.6477 v -2.90829 h 2.54 c 0.3048,0 0.5842,-0.0254 0.8636,-0.0635 l 2.1209,2.97179 z m -6.2611,-3.47979 v -4.826 h 2.54 c 1.905,0 2.921,0.8763 2.921,2.413 0,1.524 -1.016,2.413 -2.921,2.413 z"
         style="font-style:normal;font-variant:normal;font-weight:300;font-stretch:normal;font-size:12.7px;line-height:1.25;font-family:Montserrat;-inkscape-font-specification:'Montserrat Light';font-variant-ligatures:normal;font-variant-caps:normal;font-variant-numeric:normal;font-variant-east-asian:normal;letter-spacing:1.90235px;fill:#ffffff"
         id="path478" />
      <path
         d="m 123.22681,144.19415 h 0.6477 v -8.88999 h -0.6477 z"
         style="font-style:normal;font-variant:normal;font-weight:300;font-stretch:normal;font-size:12.7px;line-height:1.25;font-family:Montserrat;-inkscape-font-specification:'Montserrat Light';font-variant-ligatures:normal;font-variant-caps:normal;font-variant-numeric:normal;font-variant-east-asian:normal;letter-spacing:1.90235px;fill:#ffffff"
         id="path480" />
      <path
         d="m 135.51774,144.19415 h 0.6985 l -4.0894,-8.88999 h -0.6477 l -4.0894,8.88999 h 0.6985 l 1.1303,-2.50189 h 5.1562 z m -6.0452,-3.04799 2.3241,-5.1308 2.3368,5.1308 z"
         style="font-style:normal;font-variant:normal;font-weight:300;font-stretch:normal;font-size:12.7px;line-height:1.25;font-family:Montserrat;-inkscape-font-specification:'Montserrat Light';font-variant-ligatures:normal;font-variant-caps:normal;font-variant-numeric:normal;font-variant-east-asian:normal;letter-spacing:1.90235px;fill:#ffffff"
         id="path482" />
    </g>
  </g>
  <g
     inkscape:label="Layer 2"
     id="layer2"
     inkscape:groupmode="layer"
     transform="translate(-50.375791,-132.52794)">
    <text
       transform="translate(-4.8828518,42.636713)"
       y="0"
       x="117.20383"
       style="font-style:normal;font-variant:normal;font-weight:normal;font-stretch:normal;font-size:10.5833px;line-height:0;font-family:Montserrat;-inkscape-font-specification:Montserrat;word-spacing:0px;white-space:pre;shape-inside:url(#rect13);fill:#ffffff;fill-opacity:1;stroke:none;image-rendering:auto;"
       id="text11"
       xml:space="preserve"><tspan
         x="46.869141"
         y="105.92107"><tspan
           style="font-style:normal;font-variant:normal;font-weight:normal;font-stretch:normal;font-size:10.5833px;font-family:Montserrat;-inkscape-font-specification:Montserrat;font-variant-ligatures:normal;font-variant-caps:normal;font-variant-numeric:normal;font-variant-east-asian:normal;fill:#ffffff;fill-opacity:1">
</tspan></tspan><tspan
         x="46.869141"
         y="105.92107"><tspan
           style="font-style:normal;font-variant:normal;font-weight:normal;font-stretch:normal;font-size:10.5833px;font-family:Montserrat;-inkscape-font-specification:Montserrat;font-variant-ligatures:normal;font-variant-caps:normal;font-variant-numeric:normal;font-variant-east-asian:normal;fill:#ffffff;fill-opacity:1">
</tspan></tspan></text>
    <text
       id="text904"
       y="110.18005"
       x="146.0878"
       style="font-style:normal;font-weight:normal;font-size:10.5833px;line-height:1.25;font-family:sans-serif;fill:#000000;fill-opacity:1;stroke:none;stroke-width:0.264583"
       xml:space="preserve"><tspan
         style="stroke-width:0.264583"
         y="110.18005"
         x="146.0878"
         id="tspan902"
         sodipodi:role="line" /></text>
    <text
       xml:space="preserve"
       id="text397"
       style="font-style:normal;font-variant:normal;font-weight:normal;font-stretch:normal;font-size:19.7556px;line-height:1.25;font-family:Montserrat;-inkscape-font-specification:Montserrat;white-space:pre;shape-inside:url(#rect399);fill:#000000;fill-opacity:1;stroke:none;"
       transform="translate(-4.5968157)"><tspan
         x="54.240234"
         y="139.86623"><tspan
           style="font-style:normal;font-variant:normal;font-weight:normal;font-stretch:normal;font-size:19.7556px;font-family:Montserrat;-inkscape-font-specification:Montserrat">
</tspan></tspan></text>
    <text
       xml:space="preserve"
       id="text403"
       style="font-style:normal;font-weight:normal;font-size:12.7px;line-height:1.25;font-family:sans-serif;letter-spacing:1.5875px;white-space:pre;shape-inside:url(#rect405);fill:#000000;fill-opacity:1;stroke:none;"
       transform="translate(-4.2593461)" />
    <text
       xml:space="preserve"
       id="text409"
       style="font-style:normal;font-weight:normal;font-size:10.5833px;line-height:1.25;font-family:sans-serif;white-space:pre;shape-inside:url(#rect411);fill:#000000;fill-opacity:1;stroke:none;" />
    <text
       xml:space="preserve"
       id="text429"
       style="font-style:normal;font-weight:normal;font-size:10.5833px;line-height:1.25;font-family:sans-serif;white-space:pre;shape-inside:url(#rect431);fill:#000000;fill-opacity:1;stroke:none;" />
  </g>
</svg>
